<svg width="46" height="40" viewBox="0 0 46 40" fill="none" xmlns="http://www.w3.org/2000/svg">
<path fill-rule="evenodd" clip-rule="evenodd" d="M0.600098 4C0.600098 3.15131 0.937239 2.33738 1.53736 1.73726C2.13747 1.13715 2.9514 0.800003 3.8001 0.800003H42.2001C43.0488 0.800003 43.8627 1.13715 44.4628 1.73726C45.063 2.33738 45.4001 3.15131 45.4001 4C45.4001 4.8487 45.063 5.66263 44.4628 6.26274C43.8627 6.86286 43.0488 7.2 42.2001 7.2H3.8001C2.9514 7.2 2.13747 6.86286 1.53736 6.26274C0.937239 5.66263 0.600098 4.8487 0.600098 4ZM0.600098 20C0.600098 19.1513 0.937239 18.3374 1.53736 17.7373C2.13747 17.1371 2.9514 16.8 3.8001 16.8H42.2001C43.0488 16.8 43.8627 17.1371 44.4628 17.7373C45.063 18.3374 45.4001 19.1513 45.4001 20C45.4001 20.8487 45.063 21.6626 44.4628 22.2627C43.8627 22.8629 43.0488 23.2 42.2001 23.2H3.8001C2.9514 23.2 2.13747 22.8629 1.53736 22.2627C0.937239 21.6626 0.600098 20.8487 0.600098 20ZM0.600098 36C0.600098 35.1513 0.937239 34.3374 1.53736 33.7373C2.13747 33.1371 2.9514 32.8 3.8001 32.8H42.2001C43.0488 32.8 43.8627 33.1371 44.4628 33.7373C45.063 34.3374 45.4001 35.1513 45.4001 36C45.4001 36.8487 45.063 37.6626 44.4628 38.2627C43.8627 38.8629 43.0488 39.2 42.2001 39.2H3.8001C2.9514 39.2 2.13747 38.8629 1.53736 38.2627C0.937239 37.6626 0.600098 36.8487 0.600098 36Z" fill="#D3B696"/>
</svg>
